<svg width="40" height="40" viewBox="0 0 40 40" fill="none" xmlns="http://www.w3.org/2000/svg">
<circle cx="20" cy="20" r="20" fill="#DEE2E6"/>
<path d="M20 20C21.8417 20 23.3334 18.5083 23.3334 16.6667C23.3334 14.825 21.8417 13.3333 20 13.3333C18.1584 13.3333 16.6667 14.825 16.6667 16.6667C16.6667 18.5083 18.1584 20 20 20ZM20 21.6667C17.775 21.6667 13.3334 22.7833 13.3334 25V25.8333C13.3334 26.2917 13.7084 26.6667 14.1667 26.6667H25.8334C26.2917 26.6667 26.6667 26.2917 26.6667 25.8333V25C26.6667 22.7833 22.225 21.6667 20 21.6667Z" fill="white"/>
</svg>
