<svg width="160" height="44" viewBox="0 0 160 44" fill="none" xmlns="http://www.w3.org/2000/svg">
<g clip-path="url(#clip0_1927_192)">
<path d="M14.342 43.4214H5.85767V2.24951H14.342V43.4214Z" fill="white"/>
<path d="M29.1928 12.8249L29.4427 16.3633C30.4951 15.0479 31.771 14.0351 33.2574 13.3247C34.7438 12.6144 36.4012 12.2593 38.2296 12.2593C39.6765 12.2593 41.0051 12.4566 42.1889 12.8644C43.3728 13.2721 44.3988 13.9298 45.2406 14.8638C46.0825 15.7845 46.7402 16.9947 47.2006 18.4811C47.661 19.9675 47.8977 21.7959 47.8977 23.9663V43.421H39.7291V23.9137C39.7291 22.9271 39.6239 22.1247 39.4003 21.4802C39.1898 20.8357 38.861 20.3358 38.4532 19.9543C38.0323 19.5729 37.5324 19.3098 36.9273 19.152C36.3223 18.9941 35.6251 18.9152 34.8359 18.9152C33.6257 18.9152 32.5997 19.1783 31.7447 19.7044C30.8897 20.2306 30.1925 20.954 29.6664 21.8485V43.421H21.4977V12.8249H29.1928Z" fill="white"/>
<path d="M70.6672 34.963C70.6672 34.529 70.5883 34.1343 70.4173 33.7792C70.2463 33.424 69.9306 33.082 69.4571 32.7795C68.9835 32.4638 68.339 32.1744 67.5366 31.885C66.721 31.6088 65.6819 31.3326 64.3928 31.0695C62.8275 30.7275 61.3805 30.3065 60.052 29.7935C58.7234 29.2805 57.579 28.6491 56.6056 27.8994C55.6323 27.1496 54.8693 26.2683 54.33 25.2686C53.7775 24.2689 53.5145 23.1113 53.5145 21.7959C53.5145 20.52 53.7907 19.2967 54.3432 18.1523C54.8956 17.0079 55.698 15.995 56.7503 15.1137C57.8027 14.2324 59.0786 13.5484 60.5913 13.0354C62.104 12.5224 63.814 12.2725 65.7213 12.2725C67.6944 12.2725 69.4834 12.5224 71.0619 13.0091C72.6403 13.4958 73.982 14.1798 75.087 15.0611C76.1919 15.9424 77.0338 16.9816 77.6257 18.1917C78.2176 19.4019 78.5202 20.7173 78.5202 22.1511H70.3515C70.3515 20.9804 69.9701 20.0201 69.2203 19.2572C68.4705 18.4943 67.2867 18.1128 65.6819 18.1128C64.3007 18.1128 63.2352 18.4285 62.4855 19.0468C61.7357 19.665 61.3542 20.4542 61.3542 21.4276C61.3542 21.8749 61.4595 22.2826 61.6568 22.6246C61.8541 22.9798 62.1698 23.2955 62.617 23.5849C63.0642 23.8743 63.643 24.1505 64.3665 24.3873C65.09 24.6372 65.9844 24.8608 67.0367 25.0713C68.6941 25.387 70.2332 25.7816 71.6406 26.2551C73.0481 26.7287 74.2714 27.3337 75.2974 28.0835C76.3234 28.8333 77.1258 29.7278 77.7178 30.7932C78.2965 31.8587 78.5991 33.1478 78.5991 34.6474C78.5991 36.0022 78.2965 37.2518 77.6914 38.3962C77.0864 39.5406 76.2314 40.5272 75.1001 41.3559C73.982 42.1846 72.6272 42.8423 71.0487 43.3027C69.4702 43.7762 67.6944 44.013 65.7345 44.013C63.5904 44.013 61.6962 43.7104 60.052 43.1053C58.4077 42.5003 57.0266 41.711 55.9085 40.7245C54.7904 39.7379 53.9485 38.6462 53.3829 37.4097C52.8173 36.1864 52.5411 34.9499 52.5411 33.7003H60.2888C60.3282 34.4895 60.4992 35.1735 60.8149 35.7523C61.1306 36.3311 61.5384 36.7914 62.0514 37.1466C62.5644 37.5018 63.1432 37.7648 63.814 37.9358C64.4849 38.1068 65.182 38.1858 65.9187 38.1858C67.484 38.1858 68.6678 37.8832 69.4702 37.2913C70.2726 36.6994 70.6672 35.9233 70.6672 34.963Z" fill="white"/>
<path d="M94.9889 31.1486L92.0424 34.095V43.4212H83.8738V-0.0131836H92.0424V24.0454L93.6209 22.0065L101.447 12.8119H111.26L100.198 25.5713L112.221 43.408H102.829L94.9889 31.1486Z" fill="white"/>
<path d="M138.792 43.4212H130.597V-0.0131836H138.792V43.4212Z" fill="white"/>
<path d="M154.142 43.4212H145.947V-0.0131836H154.142V43.4212Z" fill="white"/>
<path d="M122.244 15.9033H116.377C115.759 15.9033 115.259 16.4032 115.259 17.0214V33.477C115.259 34.0952 115.759 34.5951 116.377 34.5951H122.244C122.862 34.5951 123.362 34.0952 123.362 33.477V17.0214C123.362 16.4032 122.849 15.9033 122.244 15.9033Z" fill="white"/>
<path d="M122.244 7.99756H116.377C115.759 7.99756 115.259 8.49741 115.259 9.11565V13.588C115.259 14.2062 115.759 14.7061 116.377 14.7061H122.244C122.862 14.7061 123.362 14.2062 123.362 13.588V9.11565C123.362 8.49741 122.849 7.99756 122.244 7.99756Z" fill="white"/>
<path d="M119.311 43.2899C119.034 43.2899 118.784 43.1452 118.653 42.9084L115.364 37.2128C115.233 36.976 115.233 36.6866 115.364 36.4498C115.496 36.2131 115.746 36.0684 116.022 36.0684H122.599C122.875 36.0684 123.125 36.2131 123.257 36.4498C123.388 36.6866 123.388 36.976 123.257 37.2128L119.968 42.9084C119.824 43.1452 119.574 43.2899 119.311 43.2899Z" fill="white"/>
</g>
<defs>
<clipPath id="clip0_1927_192">
<rect width="160" height="44" fill="white"/>
</clipPath>
</defs>
</svg>
