   <svg
            width="160"
            height="44"
            viewBox="0 0 160 44"
            fill="none"
            xmlns="http://www.w3.org/2000/svg"
          >
            <g clip-path="url(#clip0_1927_4795)">
              <path d="M14.342 43.4212H5.8577V2.24933H14.342V43.4212Z" fill="black" />
              <path
                d="M29.1928 12.8251L29.4427 16.3635C30.4951 15.0481 31.771 14.0353 33.2574 13.325C34.7438 12.6146 36.4012 12.2595 38.2296 12.2595C39.6765 12.2595 41.0051 12.4568 42.1889 12.8646C43.3728 13.2723 44.3988 13.93 45.2407 14.864C46.0825 15.7848 46.7402 16.9949 47.2006 18.4813C47.661 19.9677 47.8978 21.7961 47.8978 23.9665V43.4212H39.7291V23.9139C39.7291 22.9274 39.6239 22.125 39.4003 21.4804C39.1898 20.8359 38.861 20.336 38.4532 19.9546C38.0323 19.5731 37.5324 19.31 36.9274 19.1522C36.3223 18.9943 35.6251 18.9154 34.8359 18.9154C33.6257 18.9154 32.5997 19.1785 31.7447 19.7046C30.8897 20.2308 30.1925 20.9543 29.6664 21.8487V43.4212H21.4978V12.8251H29.1928Z"
                fill="black"
              />
              <path
                d="M70.6673 34.9632C70.6673 34.5291 70.5883 34.1345 70.4173 33.7794C70.2463 33.4242 69.9306 33.0822 69.4571 32.7797C68.9836 32.464 68.339 32.1746 67.5366 31.8852C66.7211 31.609 65.6819 31.3327 64.3928 31.0697C62.8275 30.7277 61.3806 30.3067 60.052 29.7937C58.7235 29.2807 57.5791 28.6493 56.6057 27.8995C55.6323 27.1498 54.8694 26.2685 54.33 25.2688C53.7776 24.2691 53.5145 23.1115 53.5145 21.7961C53.5145 20.5202 53.7907 19.2969 54.3432 18.1525C54.8957 17.0081 55.6981 15.9952 56.7504 15.1139C57.8027 14.2326 59.0786 13.5486 60.5913 13.0356C62.104 12.5226 63.814 12.2726 65.7214 12.2726C67.6945 12.2726 69.4834 12.5226 71.0619 13.0093C72.6404 13.496 73.9821 14.18 75.087 15.0613C76.1919 15.9426 77.0338 16.9818 77.6257 18.1919C78.2176 19.4021 78.5202 20.7175 78.5202 22.1513H70.3516C70.3516 20.9806 69.9701 20.0203 69.2203 19.2574C68.4706 18.4945 67.2867 18.113 65.6819 18.113C64.3007 18.113 63.2353 18.4287 62.4855 19.0469C61.7357 19.6652 61.3543 20.4544 61.3543 21.4278C61.3543 21.875 61.4595 22.2828 61.6568 22.6248C61.8541 22.98 62.1698 23.2957 62.617 23.585C63.0643 23.8744 63.643 24.1507 64.3665 24.3874C65.09 24.6374 65.9845 24.861 67.0368 25.0714C68.6942 25.3871 70.2332 25.7818 71.6407 26.2553C73.0481 26.7288 74.2715 27.3339 75.2975 28.0837C76.3235 28.8335 77.1259 29.7279 77.7178 30.7934C78.2966 31.8589 78.5991 33.148 78.5991 34.6475C78.5991 36.0024 78.2966 37.252 77.6915 38.3964C77.0864 39.5408 76.2314 40.5274 75.1002 41.3561C73.9821 42.1848 72.6272 42.8424 71.0487 43.3028C69.4703 43.7764 67.6945 44.0132 65.7345 44.0132C63.5904 44.0132 61.6963 43.7106 60.052 43.1055C58.4078 42.5004 57.0266 41.7112 55.9085 40.7247C54.7904 39.7381 53.9486 38.6463 53.383 37.4099C52.8173 36.1865 52.5411 34.9501 52.5411 33.7004H60.2888C60.3282 34.4897 60.4992 35.1737 60.8149 35.7525C61.1306 36.3312 61.5384 36.7916 62.0514 37.1468C62.5644 37.5019 63.1432 37.765 63.814 37.936C64.4849 38.107 65.1821 38.1859 65.9187 38.1859C67.484 38.1859 68.6679 37.8834 69.4703 37.2915C70.2726 36.6996 70.6673 35.9235 70.6673 34.9632Z"
                fill="black"
              />
              <path
                d="M94.9889 31.1486L92.0424 34.0951V43.4212H83.8738V-0.0131531H92.0424V24.0454L93.6209 22.0066L101.448 12.812H111.26L100.198 25.5713L112.221 43.4081H102.829L94.9889 31.1486Z"
                fill="black"
              />
              <path d="M138.792 43.4212H130.597V-0.0131531H138.792V43.4212Z" fill="black" />
              <path d="M154.142 43.4212H145.947V-0.0131531H154.142V43.4212Z" fill="black" />
              <path
                d="M122.244 15.9031H116.377C115.759 15.9031 115.259 16.403 115.259 17.0212V33.4768C115.259 34.0951 115.759 34.5949 116.377 34.5949H122.244C122.862 34.5949 123.362 34.0951 123.362 33.4768V17.0212C123.362 16.403 122.849 15.9031 122.244 15.9031Z"
                fill="black"
              />
              <path
                d="M122.244 7.9976H116.377C115.759 7.9976 115.259 8.49745 115.259 9.11569V13.588C115.259 14.2063 115.759 14.7061 116.377 14.7061H122.244C122.862 14.7061 123.362 14.2063 123.362 13.588V9.11569C123.362 8.49745 122.849 7.9976 122.244 7.9976Z"
                fill="black"
              />
              <path
                d="M119.311 43.2897C119.034 43.2897 118.784 43.145 118.653 42.9082L115.364 37.2126C115.233 36.9758 115.233 36.6864 115.364 36.4496C115.496 36.2129 115.746 36.0682 116.022 36.0682H122.599C122.875 36.0682 123.125 36.2129 123.257 36.4496C123.388 36.6864 123.388 36.9758 123.257 37.2126L119.968 42.9082C119.824 43.145 119.574 43.2897 119.311 43.2897Z"
                fill="black"
              />
            </g>
            <defs>
              <clipPath id="clip0_1927_4795">
                <rect width="160" height="44" fill="white" />
              </clipPath>
            </defs>
          </svg>
