<svg xmlns="http://www.w3.org/2000/svg" xmlns:xlink="http://www.w3.org/1999/xlink" width="76" height="76" viewBox="0 0 76 76"><defs><clipPath id="a"><rect width="76" height="76" transform="translate(342 -327)" fill="none" stroke="#707070" stroke-width="1"/></clipPath></defs><g transform="translate(-342 327)" clip-path="url(#a)"><path d="M46.667,61.667a6.344,6.344,0,0,1-2.533-.5c-2.367-1.233-4.033-2.933-5.7-7.933-1.7-5.2-4.9-7.633-7.967-10A25.339,25.339,0,0,1,22.733,34.8,20.88,20.88,0,0,1,20,25a16.663,16.663,0,0,1,33.167-2.3A2.733,2.733,0,0,0,55.9,25h1.133A2.8,2.8,0,0,0,59.8,21.867a23.033,23.033,0,0,0-23.133-20.2A23.066,23.066,0,0,0,13.333,25,27.592,27.592,0,0,0,16.9,38a31.776,31.776,0,0,0,9.5,10.5c2.7,2.067,4.633,3.567,5.7,6.833,2,6.067,4.567,9.467,9.1,11.833a13.366,13.366,0,0,0,18.333-8.6A2.816,2.816,0,0,0,56.833,55H55.667a2.946,2.946,0,0,0-2.7,2.1A6.66,6.66,0,0,1,46.667,61.667ZM13.233,1.566a3.368,3.368,0,0,0-5,.233,36.756,36.756,0,0,0,0,46.367,3.359,3.359,0,0,0,4.967.267,3.278,3.278,0,0,0,.233-4.4A30.114,30.114,0,0,1,6.667,25a29.791,29.791,0,0,1,6.8-19A3.284,3.284,0,0,0,13.233,1.566ZM28.333,25a8.333,8.333,0,1,0,8.333-8.333A8.336,8.336,0,0,0,28.333,25Z" transform="translate(350 -323.566)" fill="#fff"/></g></svg>