<svg xmlns="http://www.w3.org/2000/svg" xmlns:xlink="http://www.w3.org/1999/xlink" width="76" height="76" viewBox="0 0 76 76"><defs><clipPath id="a"><rect width="76" height="76" transform="translate(239 -327)" fill="none" stroke="#707070" stroke-width="1"/></clipPath></defs><g transform="translate(-239 327)" clip-path="url(#a)"><path d="M57.333,20.666H10.667a3.333,3.333,0,1,1,0-6.667H57.333a3.333,3.333,0,1,1,0,6.667Zm-6.667-20H17.333a3.333,3.333,0,0,0,0,6.667H50.667a3.333,3.333,0,0,0,0-6.667ZM67.333,34V60.666a6.686,6.686,0,0,1-6.667,6.667H7.333A6.686,6.686,0,0,1,.667,60.666V34a6.686,6.686,0,0,1,6.667-6.667H60.667A6.686,6.686,0,0,1,67.333,34Zm-22.7,11.867-17.3-9.433V58.2l17.3-9.4A1.667,1.667,0,0,0,44.633,45.866Z" transform="translate(243.333 -322.666)" fill="#fff"/></g></svg>