<svg xmlns="http://www.w3.org/2000/svg" xmlns:xlink="http://www.w3.org/1999/xlink" width="76" height="76" viewBox="0 0 76 76"><defs><clipPath id="a"><rect width="76" height="76" transform="translate(574 -327)" fill="none" stroke="#707070" stroke-width="1"/></clipPath></defs><g transform="translate(-574 327)" clip-path="url(#a)"><path d="M7,10.334A3.343,3.343,0,0,1,10.333,7H63.667a3.333,3.333,0,0,0,0-6.667H7A6.686,6.686,0,0,0,.333,7V47A6.686,6.686,0,0,0,7,53.667H17A3.333,3.333,0,0,0,17,47H10.333A3.343,3.343,0,0,1,7,43.667ZM37,27H30.333A3.343,3.343,0,0,0,27,30.334v2.6a9.881,9.881,0,0,0,0,14.8v2.6a3.343,3.343,0,0,0,3.333,3.333H37a3.343,3.343,0,0,0,3.333-3.333v-2.6a9.881,9.881,0,0,0,0-14.8v-2.6A3.343,3.343,0,0,0,37,27ZM33.667,45.334a5,5,0,1,1,5-5A4.993,4.993,0,0,1,33.667,45.334ZM70.333,13.667h-20A3.585,3.585,0,0,0,47,17V50.334a3.585,3.585,0,0,0,3.333,3.333h20a3.585,3.585,0,0,0,3.333-3.333V17A3.585,3.585,0,0,0,70.333,13.667ZM67,47H53.667V20.334H67Z" transform="translate(574.667 -316.334)" fill="#fff"/></g></svg>